<!DOCTYPE svg PUBLIC "-//W3C//DTD SVG 1.1//EN" "http://www.w3.org/Graphics/SVG/1.1/DTD/svg11.dtd">
<!-- Uploaded to: SVG Repo, www.svgrepo.com, Transformed by: SVG Repo Mixer Tools -->
<svg fill="#D8AE76" version="1.1" id="Layer_1" xmlns="http://www.w3.org/2000/svg" xmlns:xlink="http://www.w3.org/1999/xlink" width="800px" height="800px" viewBox="0 0 256 213" enable-background="new 0 0 256 213" xml:space="preserve">
<g id="SVGRepo_bgCarrier" stroke-width="0"/>
<g id="SVGRepo_tracerCarrier" stroke-linecap="round" stroke-linejoin="round"/>
<g id="SVGRepo_iconCarrier"> <path d="M228.849,40H163V16.275C163,7.513,155.222,2,145.649,2c0,0-36.497,0-36.298,0C99.977,2,92,7.513,92,16.275V41H27.164 C14.138,41,2,52.056,2,66.666c0,0.395,0,117.569,0,117.569C2,200.523,14.171,211,27,211h201.947c12.772,0,25.053-9.589,25.053-26.07 c0,0,0-118.461,0-118.961C253.902,51.187,241.817,40,228.849,40z M161.735,76.092c3.4,0,6.4,1.9,7.9,4.6c0.2,0.3,0.4,0.6,0.7,0.9 c1.8,1.8,4.7,1.8,6.4,0c0.3-0.3,0.5-0.6,0.7-0.9c-1.1,7.7-7.7,13.6-15.7,13.6c-5,0-9.1-4.1-9.1-9.1S156.735,76.092,161.735,76.092z M105,16h45v25h-45V16z M132.362,148.192c0,2.927-2.373,5.3-5.3,5.3s-5.3-2.373-5.3-5.3s2.373-5.3,5.3-5.3 S132.362,145.265,132.362,148.192z M93.035,75.592c5.026,0,9.1,4.074,9.1,9.1s-4.074,9.1-9.1,9.1s-9.1-4.074-9.1-9.1 S88.009,75.592,93.035,75.592z M115.735,135.492c0,2.2-1.8,4-4,4c-2.3,0-4-1.8-4-4v-25.6c0-0.6-0.5-1.1-1.1-1.1 c-0.6,0-1.1,0.5-1.1,1.1v69.3c0,3.4-2.5,6.2-5.7,6.2s-5.7-2.8-5.7-6.2v-39.5c0-0.6-0.5-1.1-1.1-1.1c-0.6,0-1.1,0.5-1.1,1.1v39.5 c0,3.4-2.5,6.2-5.7,6.2s-5.7-2.8-5.7-6.2v-69.3c0-0.6-0.5-1.1-1.1-1.1c-0.6,0-1.1,0.5-1.1,1.1v25.7c0,2.2-1.8,4-4,4 c-2.3,0-4-1.8-4-4v-28c-0.2-6.3,5-11.4,11.2-11.4h22.8c6.3,0,11.4,5.1,11.4,11.4V135.492z M137.762,167.492c0,1.1-0.9,1.9-2,1.9 c-1.1,0-2-0.9-2-1.9v-6.1c0-0.4-0.3-0.6-0.7-0.6c-0.4,0-0.6,0.3-0.6,0.6v21.7c0,1.3-1,2.3-2.3,2.3s-2.3-1-2.3-2.3v-11 c0-0.4-0.3-0.6-0.6-0.6c-0.4,0-0.6,0.3-0.6,0.6v11c0,1.3-1,2.3-2.3,2.3c-1.3,0-2.3-1-2.3-2.3v-21.7c0-0.4-0.3-0.6-0.6-0.6 c-0.4,0-0.7,0.3-0.7,0.6v6.1c0,1.1-0.9,1.9-2,1.9c-1.1,0-2-0.9-2-1.9v-7.3c-0.3-2.8,1.9-5.2,4.7-5.3h11.2c2.8,0.1,5.1,2.5,5.1,5.3 V167.492z M182.135,139.792c-2.2,0.3-4.2-1.3-4.4-3.5l-3.3-26.9c-0.1-0.5-0.6-0.9-1.1-0.9c-0.6,0-1.1,0.5-1.1,1.1c0,0.1,0,0.2,0,0.2 s2.3,19.1,2.4,19.5c0.1,0.5,0.1,1,0.1,1.5v48.5c0,3.4-2.5,6.2-5.7,6.2c-3.1,0-5.7-2.8-5.7-6.2v-39.5c0-0.6-0.5-1.1-1.1-1.1 c-0.6,0-1.1,0.5-1.1,1.1v39.4c0,3.4-2.5,6.2-5.7,6.2c-3.1,0-5.7-2.8-5.7-6.2v-48.5c0-0.5,0-1,0.1-1.5c0-0.4,2.4-19.5,2.4-19.5 s0-0.1,0-0.2c0-0.6-0.5-1.1-1.1-1.1c-0.6,0-1,0.4-1.1,0.9l-3.2,26.9c-0.4,2.3-2.4,3.9-4.6,3.6c-2.2-0.3-3.7-2.2-3.5-4.4l3.4-29 c0.8-5.5,5.5-9.8,11.3-9.8h17.4c5.7,0,10.5,4.3,11.3,9.8l3.5,29C185.935,137.592,184.335,139.592,182.135,139.792z"/> </g>
</svg>