<!DOCTYPE svg PUBLIC "-//W3C//DTD SVG 1.1//EN" "http://www.w3.org/Graphics/SVG/1.1/DTD/svg11.dtd">
<!-- Uploaded to: SVG Repo, www.svgrepo.com, Transformed by: SVG Repo Mixer Tools -->
<svg fill="#D8AE76" height="800px" width="800px" version="1.1" id="Capa_1" xmlns="http://www.w3.org/2000/svg" xmlns:xlink="http://www.w3.org/1999/xlink" viewBox="0 0 333.343 333.343" xml:space="preserve">
<g id="SVGRepo_bgCarrier" stroke-width="0"/>
<g id="SVGRepo_tracerCarrier" stroke-linecap="round" stroke-linejoin="round"/>
<g id="SVGRepo_iconCarrier"> <path d="M332.219,143.108c-0.028-2.444-1.172-4.741-3.104-6.236l-67.054-51.886c-1.401-1.085-3.123-1.673-4.896-1.673H76.176 c-1.772,0-3.494,0.588-4.896,1.673L4.227,136.871c-1.933,1.496-3.076,3.792-3.103,6.236L0.001,241.94 c-0.024,2.137,0.808,4.195,2.311,5.715c1.502,1.52,3.551,2.376,5.688,2.376h317.343c2.138,0,4.186-0.855,5.688-2.376 c1.503-1.52,2.335-3.578,2.312-5.715L332.219,143.108z M95.774,99.312h40.919l-10.334,35.886H69.531 c8.516-11.208-5.295-14.188-17.922-14.761l14.154-10.953C78.288,109.609,97.163,108.319,95.774,99.312z M267.579,109.485 l14.154,10.953c-12.627,0.572-26.436,3.553-17.921,14.761h-56.829l-10.336-35.886h40.922 C236.181,108.319,255.054,109.609,267.579,109.485z M123.55,151.199v8.711H16.933l0.099-8.711H123.55z M123.55,175.909v9.756H16.64 l0.111-9.756H123.55z M123.55,201.665v7.164H16.377l0.081-7.164H123.55z M209.792,208.829v-7.164h107.092l0.081,7.164H209.792z M209.792,185.665v-9.756H316.59l0.111,9.756H209.792z M209.792,159.909v-8.711H316.31l0.099,8.711H209.792z M16.196,224.829H123.55 v9.202H16.091L16.196,224.829z M209.792,234.031v-9.202h107.355l0.104,9.202H209.792z"/> </g>
</svg>