<!DOCTYPE svg PUBLIC "-//W3C//DTD SVG 1.1//EN" "http://www.w3.org/Graphics/SVG/1.1/DTD/svg11.dtd">
<!-- Uploaded to: SVG Repo, www.svgrepo.com, Transformed by: SVG Repo Mixer Tools -->
<svg fill="#D8AE76" version="1.1" id="Layer_1" xmlns="http://www.w3.org/2000/svg" xmlns:xlink="http://www.w3.org/1999/xlink" viewBox="0 0 491.52 491.52" xml:space="preserve" width="800px" height="800px">
<g id="SVGRepo_bgCarrier" stroke-width="0"/>
<g id="SVGRepo_tracerCarrier" stroke-linecap="round" stroke-linejoin="round"/>
<g id="SVGRepo_iconCarrier"> <g> <g> <path d="M491.52,389.12V30.72H0v358.4h153.6v51.2h-40.96v20.48h266.24v-20.48h-40.96v-51.2H491.52z M20.48,51.2h450.56v256H20.48 V51.2z M317.44,440.32H174.08v-51.2h143.36V440.32z M20.48,368.64v-40.96h450.56v40.96H20.48z"/> </g> </g> <g> <g> <rect x="235.52" y="153.6" width="20.48" height="92.16"/> </g> </g> <g> <g> <rect x="235.52" y="112.64" width="20.48" height="20.48"/> </g> </g> <g> <g> <path d="M358.4,143.36v-20.48c0-22.59-18.375-40.96-40.96-40.96v20.48c11.295,0,20.48,9.19,20.48,20.48v20.48 c0,12.293,5.554,23.207,14.154,30.72c-8.6,7.513-14.154,18.427-14.154,30.72v20.48c0,11.29-9.185,20.48-20.48,20.48v20.48 c22.585,0,40.96-18.37,40.96-40.96V204.8c0-11.29,9.185-20.48,20.48-20.48v-20.48C367.585,163.84,358.4,154.65,358.4,143.36z"/> </g> </g> <g> <g> <path d="M153.6,143.36v-20.48c0-11.29,9.185-20.48,20.48-20.48V81.92c-22.585,0-40.96,18.37-40.96,40.96v20.48 c0,11.29-9.185,20.48-20.48,20.48v20.48c11.295,0,20.48,9.19,20.48,20.48v20.48c0,22.59,18.375,40.96,40.96,40.96v-20.48 c-11.295,0-20.48-9.19-20.48-20.48V204.8c0-12.293-5.554-23.207-14.154-30.72C148.046,166.567,153.6,155.653,153.6,143.36z"/> </g> </g> </g>
</svg>